<?xml version="1.0" encoding="UTF-8"?>
<svg id="Layer_2" data-name="Layer 2" xmlns="http://www.w3.org/2000/svg" viewBox="0 0 63.42 54.03">
  <defs>
    <style>
      .cls-1 {
        fill: #fff;
      }

      .cls-2 {
        fill: #201d1d;
      }
    </style>
  </defs>
  <g id="bio_-_greening_-_green_down" data-name="bio - greening - green down">
    <g id="popup_copy" data-name="popup copy">
      <g>
        <path class="cls-2" d="M20.31,52.53l-.39-.92C14.12,37.85,3.81,30.9,3.7,30.83l-1.43-.95,7.48-8.49,1.11,.82c.36,.26,8.11,6.05,13.08,14.25,.36-.57,.72-1.17,1.1-1.78,5.04-8.15,12.67-20.47,28.74-31.98l1.03-.74,.9,.89c2.41,2.39,4.78,6.43,4.88,6.6l.78,1.33-1.36,.74c-.16,.09-16.42,9.29-32.27,40.19l-.42,.82h-7.01Z"/>
        <path class="cls-1" d="M54.65,3.91c2.29,2.28,4.64,6.29,4.64,6.29,0,0-16.58,9.04-32.89,40.82h-5.1C15.24,36.64,4.53,29.58,4.53,29.58l5.44-6.17s9.21,6.8,13.88,15.96c5.36-8.19,12.29-22.2,30.8-35.46m.31-3.91l-2.06,1.48c-16.16,11.57-23.89,23.92-29,32.17-5.07-7.37-11.82-12.4-12.16-12.65l-2.21-1.63-1.82,2.06-5.44,6.17-2.28,2.59,2.88,1.9c.09,.06,10.05,6.81,15.67,20.11l.77,1.83h8.92l.84-1.63c8.15-15.89,16.33-25.81,21.76-31.33,5.87-5.97,9.86-8.21,9.9-8.24l2.68-1.49-1.54-2.65c-.1-.18-2.58-4.39-5.12-6.91l-1.8-1.78h0Z"/>
      </g>
    </g>
  </g>
</svg>